<svg width="63" height="76" viewBox="0 0 63 76" fill="none" xmlns="http://www.w3.org/2000/svg">
  <path fill-rule="evenodd" clip-rule="evenodd"
    d="M17.2993 0.851869C21.0429 -0.0665564 23.8214 0.870146 26.3316 3.50433C26.9964 4.20115 28.3261 6.22534 28.9244 7.57099C28.9336 7.59384 28.9427 7.6144 28.9542 7.63725C30.912 11.1624 30.6529 18.2517 27.2807 19.6225C25.7952 20.2256 23.8466 19.9583 21.9576 19.2135C16.38 17.018 12.7603 11.2744 13.4113 5.35946C13.4159 5.37089 13.4182 5.38231 13.4228 5.39373C13.6772 3.13194 15.5846 1.27681 17.3016 0.854155"
    fill="#86C9DD" />
  <path fill-rule="evenodd" clip-rule="evenodd"
    d="M40.5863 31.3448C37.1292 32.9052 33.8281 33.5244 30.5086 33.6158C20.1467 33.9059 13.118 29.9581 7.48083 22.4941C8.44596 30.9267 14.3513 35.2698 20.5203 37.6002C25.6646 39.5421 38.1264 39.0806 40.5863 31.3425"
    fill="#86C9DD" />
  <path fill-rule="evenodd" clip-rule="evenodd"
    d="M31.9825 23.3624C33.3511 25.229 38.9127 24.9068 41.1753 24.3197C46.542 22.9283 49.4855 20.7442 51.5006 17.4269C52.4382 15.8848 52.9471 14.249 52.9402 13.0199C52.9265 10.6553 51.9132 8.1056 49.4557 6.0083C51.1269 14.6876 40.6847 17.8542 34.8894 20.55C32.8445 21.5004 31.4782 22.6656 31.9825 23.3624Z"
    fill="#86C9DD" />
  <path fill-rule="evenodd" clip-rule="evenodd"
    d="M19.0049 38.8043C21.1185 41.6807 25.6966 45.0276 29.7428 45.3155C37.9887 45.9027 50.3245 28.0345 51.4042 20.3216C48.5914 22.8118 47.3947 23.7348 43.8872 24.8246C41.1088 25.6882 36.1639 26.4695 32.1453 24.6144C30.85 23.8765 30.3503 22.5445 32.0765 21.2331C34.589 19.4397 41.3655 17.0294 45.3865 13.422C47.3924 11.6582 48.3575 8.74529 47.7844 6.16822C47.0165 2.70928 43.7657 0.335538 39.8204 0.454339C36.8494 0.54344 34.7885 1.85254 33.3213 3.89044C31.6891 6.15451 31.3544 8.9532 31.3933 11.0162C31.4575 14.4775 31.0174 19.1427 27.0812 20.4586C21.2377 22.6565 9.50262 13.5727 11.4168 4.66036C8.79884 6.94043 7.20329 11.7702 7.49443 14.7082C8.2624 22.4074 12.8496 28.1396 20.8984 30.9109C27.1477 33.063 34.2727 32.9853 40.4325 30.5179C42.4957 29.716 40.3248 33.28 39.8112 34.0294C35.5129 40.3053 24.7727 40.6686 19.0049 38.8066"
    fill="#00626E" />
  <path fill-rule="evenodd" clip-rule="evenodd"
    d="M41.8172 53.1129V63.7936H39.2199V58.5321C39.2199 57.8398 39.1672 53.627 39.252 53.3163C39.1144 53.4922 39.1832 54.3032 39.1832 54.566C39.1832 55.5506 39.1397 63.4646 39.2061 63.8096L41.8172 63.7982C41.8837 63.5103 41.8402 55.3976 41.8402 54.4426C41.8402 54.1273 41.8814 53.3802 41.815 53.1175C41.7531 53.0809 41.815 53.0741 41.7347 53.1198H41.815L41.8172 53.1129Z"
    fill="#86C9DD" />
  <path fill-rule="evenodd" clip-rule="evenodd"
    d="M57.3968 57.5338L57.3487 57.4995L57.351 57.3876L57.3005 57.4972L57.3968 57.5338Z" fill="#86C9DD" />
  <path fill-rule="evenodd" clip-rule="evenodd"
    d="M52.7729 59.6036C53.0205 54.7465 50.6844 52.4595 45.3545 53.2957C44.1372 53.4876 43.1629 53.4374 43.2202 54.7305C43.2706 55.8705 43.2454 57.0128 43.2454 58.1551V64.9245C43.2454 66.044 43.2087 65.073 43.2431 66.1857C43.2752 67.2297 42.7136 68.845 44.3481 68.4223C45.5218 68.1185 45.8267 67.4742 45.8634 66.4004C45.9024 65.2992 45.8519 66.3022 45.8726 65.1918C45.8795 64.8126 45.7763 63.8005 45.8909 63.5149C46.0353 63.1517 46.6887 63.6634 46.9431 63.7731C47.7318 64.1089 49.2677 64.1683 50.0907 63.901C52.0255 63.2727 52.6881 61.3285 52.7752 59.6036H52.7729ZM47.0165 55.1234C51.3424 54.8447 50.5652 61.2645 48.8849 61.9431C48.1054 62.2584 47.1609 62.055 46.3953 61.8014C45.7075 61.5753 45.8588 61.5593 45.868 60.8899C45.8726 60.4421 45.8657 59.9874 45.8657 59.5396C45.8657 58.6258 45.8657 57.7142 45.8657 56.8004C45.8657 55.4776 45.476 55.2217 47.0188 55.1234H47.0165Z"
    fill="#86C9DD" />
  <path fill-rule="evenodd" clip-rule="evenodd"
    d="M22.5194 53.1358C20.4424 53.2409 18.911 54.052 18.1568 55.8934C17.4943 57.5063 17.4003 60.1611 18.0881 61.7718C18.9408 63.764 20.5868 64.3488 22.7922 63.9422C24.1149 63.6977 24.6284 62.6308 24.5528 64.23C24.5001 65.3609 24.5482 64.2826 24.5367 65.4203C24.5276 66.3045 24.4244 67.4856 25.3391 68.0408C25.6921 68.2533 26.4418 68.4955 26.8453 68.3447C27.3748 68.1459 27.1731 67.3052 27.1479 66.8916C27.0172 64.8126 27.157 64.5065 27.157 62.3749C27.157 60.1222 27.157 57.8696 27.1456 55.6147C27.1364 54.004 27.6201 53.8235 25.7953 53.4511C24.6789 53.2226 23.6702 53.0764 22.5171 53.1358H22.5194ZM22.7647 55.1235C23.2553 55.0869 23.6129 55.1372 24.0897 55.2148C24.7454 55.3199 24.5299 55.6009 24.5367 56.1424C24.5436 56.693 24.5849 61.4291 24.4978 61.5707C24.28 61.9203 22.5584 62.1236 22.1136 62.0825C20.22 61.9066 20.2086 59.6379 20.2659 58.3151C20.3324 56.7433 20.8069 55.2697 22.767 55.1257L22.7647 55.1235Z"
    fill="#86C9DD" />
  <path fill-rule="evenodd" clip-rule="evenodd"
    d="M37.6451 53.3415C37.088 53.0947 35.6988 53.3575 35.3113 54.0132C34.9537 54.6209 35.0638 55.93 35.0638 56.6428C35.0638 58.0113 35.0362 59.6105 35.066 60.9585C35.0775 61.4428 34.8299 61.5159 34.3531 61.7238C33.6218 62.0414 32.5283 62.2561 31.7901 61.8655C30.9946 61.4451 31.1047 60.3599 31.107 59.6357C31.1093 57.8148 30.9923 55.6695 31.123 53.8898C31.1757 53.1633 30.841 53.2729 30.1854 53.3232C28.3377 53.4626 28.4959 54.4564 28.4936 56.0465C28.4913 57.712 28.3423 60.1246 28.5555 61.7055C28.842 63.8394 30.1006 64.1432 32.1936 64.0633C33.145 64.0267 34.0918 63.9353 35.0362 63.8371C37.088 63.6269 36.7991 64.0313 37.6795 63.981L37.6474 53.3415H37.6451Z"
    fill="#86C9DD" />
  <path fill-rule="evenodd" clip-rule="evenodd"
    d="M61.9039 56.5353C62.2225 52.4207 56.3813 51.9203 54.302 55.0275C52.679 57.4515 53.6006 62.649 56.6518 63.7365C58.0754 64.2437 60.6613 63.9992 61.7159 62.8592C62.3303 62.1944 62.6237 60.9264 61.3789 61.541C60.6155 61.9179 59.3111 62.1829 58.4652 62.055C56.904 61.822 54.9692 59.238 57.2502 58.804C58.887 58.491 61.7503 58.5664 61.9062 56.5376L61.9039 56.5353ZM55.9687 57.7782L55.8701 57.7553L55.9045 57.6411C55.6821 55.8019 57.4427 53.8897 59.2217 55C59.969 55.4684 59.9805 56.6564 59.0864 57.1202C58.0869 57.6388 57.0163 57.5908 55.9687 57.7782Z"
    fill="#86C9DD" />
  <path fill-rule="evenodd" clip-rule="evenodd"
    d="M39.252 53.3162C39.1672 53.6269 39.2199 57.8398 39.2199 58.532V63.7913H41.8196V53.1106H41.7371L39.252 53.3139V53.3162Z"
    fill="#86C9DD" />
  <path fill-rule="evenodd" clip-rule="evenodd"
    d="M38.9264 49.7157C39.0479 51.7491 42.1702 51.5823 42.0625 49.5261C41.9593 47.5453 38.8049 47.6641 38.9264 49.7157Z"
    fill="#86C9DD" />
  <path fill-rule="evenodd" clip-rule="evenodd"
    d="M7.88651 53.7824C7.90026 53.2935 5.34646 53.1084 4.92694 53.1038C0.154035 53.0399 -0.118767 57.4995 2.08429 58.9045C3.49644 59.8504 5.96084 59.8709 5.74076 61.1686C5.54361 62.3406 3.97328 62.1693 3.0242 62.231C2.34105 62.2744 2.2631 63.3207 2.73993 63.5629C4.81919 64.6161 7.73291 63.4235 8.04927 61.4131C8.19599 60.4786 8.05615 59.5305 7.21482 58.8748C6.0938 58.0044 2.9623 57.5543 3.71423 55.8431C4.12458 54.9087 5.34875 54.9681 6.19696 55.1235C6.68755 55.2148 7.30422 55.5758 7.45782 55.08C7.51054 54.9133 7.8888 53.8303 7.8888 53.7801"
    fill="#86C9DD" />
  <path fill-rule="evenodd" clip-rule="evenodd"
    d="M16.9119 56.5353C17.2306 52.4207 11.3894 51.9203 9.3101 55.0275C7.68704 57.4515 8.60861 62.649 11.6599 63.7365C13.0835 64.2437 15.6694 63.9992 16.7239 62.8592C17.3383 62.1944 17.6317 60.9264 16.3869 61.541C15.6235 61.9179 14.3191 62.1829 13.4732 62.055C11.912 61.822 9.97721 59.238 12.2582 58.804C13.895 58.491 16.7583 58.5664 16.9142 56.5376L16.9119 56.5353ZM10.9767 57.7782L10.8781 57.7553L10.9125 57.6411C10.6902 55.8019 12.4508 53.8897 14.2297 55C14.9771 55.4684 14.9885 56.6564 14.0945 57.1202C13.095 57.6388 12.0244 57.5908 10.9767 57.7782Z"
    fill="#86C9DD" />
  <path
    d="M61.3559 72.4798C61.3559 72.7723 61.3559 73.2223 61.3421 73.3823C61.3008 73.4302 61.216 73.4508 61.1473 73.4508C60.973 73.4508 60.918 73.3183 60.918 72.9779C60.918 72.5255 61.0166 72.4159 61.1748 72.4159C61.2298 72.4159 61.3077 72.4364 61.3559 72.4775V72.4798ZM62.1284 71.3192C62.1284 70.6932 61.8923 70.4716 61.2504 70.4716C60.6933 70.4716 60.3105 70.5973 60.2119 70.6727C60.15 70.7207 60.1134 70.8326 60.1134 70.9148C60.1134 71.0268 60.134 71.2004 60.2188 71.3581C60.448 71.2758 60.7965 71.2119 61.0624 71.2119C61.2779 71.2119 61.3559 71.2872 61.3559 71.4746V71.9544C61.2298 71.8721 61.0143 71.8493 60.9111 71.8493C60.5008 71.8493 60.1042 72.0435 60.1042 72.9939C60.1042 73.9443 60.5787 74.0768 61.0945 74.0768C61.5117 74.0768 61.8602 73.9945 62.0986 73.8552C62.133 73.3411 62.133 72.4387 62.133 71.6414V71.3147L62.1284 71.3192ZM58.9717 73.332C58.9098 73.38 58.8319 73.4005 58.7356 73.4005C58.5545 73.4005 58.4719 73.1721 58.4719 72.3382C58.4719 71.1936 58.6806 71.1296 58.8204 71.1296C58.8754 71.1296 58.9327 71.1365 58.974 71.1639V73.3297L58.9717 73.332ZM58.9717 70.5973C58.8892 70.5287 58.7493 70.4716 58.5614 70.4716C58.018 70.4716 57.6008 71.0131 57.6008 72.4364C57.6008 73.8597 58.1372 74.0814 58.7287 74.0814C59.1826 74.0814 59.5081 73.9763 59.7466 73.8735V68.9089C59.1047 68.9089 58.974 68.9089 58.974 69.2494V70.5973H58.9717ZM57.2226 70.5425C56.5876 70.5425 56.4362 70.5425 56.4362 70.8829V74.0128C57.2157 74.0128 57.2226 74.0128 57.2226 73.8735V70.5402V70.5425ZM56.4362 69.6674C56.4362 70.0969 56.583 70.2226 56.8122 70.2226C57.0827 70.2226 57.2226 70.001 57.2226 69.6332C57.2294 69.2585 57.1469 69.126 56.8604 69.126C56.5738 69.126 56.4362 69.3476 56.4362 69.6674ZM56.1726 69.1534H55.4895C55.3496 69.1534 55.3221 69.2151 55.3015 69.3613L54.9943 71.4312C54.8888 72.1189 54.8063 72.9231 54.765 73.3823C54.71 72.9231 54.6114 72.1189 54.5083 71.4312L54.153 69.1534H53.5042C53.3575 69.1534 53.3162 69.1808 53.3162 69.2516C53.3162 69.279 53.3231 69.3133 53.33 69.3567C53.33 69.3567 53.8939 72.5438 54.1392 73.6473C54.1873 73.8757 54.3134 74.0562 54.5702 74.0562C54.8705 74.0562 55.0149 74.0425 55.2465 74.0151L56.1726 69.1557V69.1534ZM51.3309 72.4798C51.3309 72.7723 51.3309 73.2223 51.3172 73.3823C51.2759 73.4302 51.1911 73.4508 51.1223 73.4508C50.9481 73.4508 50.8931 73.3183 50.8931 72.9779C50.8931 72.5255 50.9916 72.4159 51.1498 72.4159C51.2048 72.4159 51.2828 72.4364 51.3309 72.4775V72.4798ZM52.1035 71.3215C52.1035 70.6955 51.8674 70.4739 51.2255 70.4739C50.6684 70.4739 50.2856 70.5996 50.187 70.675C50.1251 70.7229 50.0884 70.8349 50.0884 70.9171C50.0884 71.0291 50.1091 71.2027 50.1939 71.3604C50.4231 71.2781 50.7716 71.2141 51.0375 71.2141C51.253 71.2141 51.3309 71.2895 51.3309 71.4769V71.9566C51.2048 71.8744 50.9894 71.8516 50.8862 71.8516C50.4758 71.8516 50.0792 72.0457 50.0792 72.9962C50.0792 73.9466 50.5538 74.0791 51.0696 74.0791C51.4868 74.0791 51.8353 73.9968 52.0737 73.8575C52.1081 73.3434 52.1081 72.441 52.1081 71.6436V71.3169L52.1035 71.3215ZM48.9468 73.3343C48.8849 73.3823 48.8069 73.4028 48.7106 73.4028C48.5295 73.4028 48.447 73.1744 48.447 72.3405C48.447 71.1959 48.6556 71.1319 48.7955 71.1319C48.8505 71.1319 48.9078 71.1387 48.9491 71.1662V73.332L48.9468 73.3343ZM48.9468 70.5996C48.8642 70.531 48.7244 70.4739 48.5364 70.4739C47.9931 70.4739 47.5759 71.0154 47.5759 72.4387C47.5759 73.862 48.1123 74.0836 48.7038 74.0836C49.1577 74.0836 49.4832 73.9786 49.7216 73.8757V68.9112C49.0797 68.9112 48.9491 68.9112 48.9491 69.2516V70.5996H48.9468ZM45.4852 72.4821C45.4852 72.7745 45.4852 73.2246 45.4714 73.3845C45.4301 73.4325 45.3453 73.4531 45.2765 73.4531C45.1023 73.4531 45.0473 73.3206 45.0473 72.9802C45.0473 72.5278 45.1459 72.4181 45.3041 72.4181C45.3591 72.4181 45.437 72.4387 45.4852 72.4798V72.4821ZM46.2577 71.3238C46.2577 70.6978 46.0216 70.4762 45.3797 70.4762C44.8226 70.4762 44.4398 70.6019 44.3412 70.6773C44.2793 70.7252 44.2426 70.8372 44.2426 70.9194C44.2426 71.0314 44.2633 71.205 44.3481 71.3626C44.5773 71.2804 44.9258 71.2164 45.1917 71.2164C45.4072 71.2164 45.4852 71.2918 45.4852 71.4792V71.9589C45.3591 71.8767 45.1436 71.8538 45.0404 71.8538C44.6301 71.8538 44.2335 72.048 44.2335 72.9984C44.2335 73.9488 44.708 74.0814 45.2238 74.0814C45.641 74.0814 45.9895 73.9991 46.2279 73.8598C46.2623 73.3457 46.2623 72.4433 46.2623 71.6459V71.3192L46.2577 71.3238ZM42.6907 74.7805C42.6907 74.7805 42.7892 74.7393 43.0047 74.7393C43.1377 74.7393 43.1858 74.8147 43.1858 74.9609C43.1858 75.0798 43.1514 75.1826 42.991 75.1826C42.8305 75.1826 42.7182 75.0432 42.67 75.0912C42.6219 75.1391 42.5577 75.4453 42.5577 75.4453C42.5577 75.4453 42.7388 75.5504 42.9749 75.5504C43.3715 75.5504 43.6008 75.2511 43.6008 74.9038C43.6008 74.5566 43.4265 74.4104 43.2454 74.4104H43.1331L43.1881 74.0836H43.2225C43.6672 74.0836 43.9813 73.9374 43.9813 73.709C43.9813 73.5902 43.9607 73.4736 43.9194 73.3069C43.8071 73.3617 43.6191 73.4051 43.4747 73.4051C43.1056 73.4051 43.0001 73.1492 43.0001 72.3427C43.0001 71.2804 43.25 71.1479 43.5022 71.1479C43.6489 71.1479 43.83 71.189 43.94 71.237C43.9951 71.0771 44.0088 70.9308 44.0088 70.828C44.0088 70.6064 43.7727 70.4739 43.4311 70.4739C42.8534 70.4739 42.1909 70.6887 42.1909 72.3565C42.1909 73.4805 42.3857 73.9054 42.8099 74.0357L42.6838 74.7782L42.6907 74.7805ZM40.6916 74.0174C41.2158 74.0174 41.4779 73.9709 41.4779 73.878V71.3238C41.5834 71.2484 41.7072 71.2119 41.792 71.2119C41.8608 71.2119 41.9525 71.2187 42.0488 71.2667C42.1107 71.0931 42.1244 70.9126 42.1244 70.8235C42.1244 70.5881 42.035 70.4762 41.6567 70.4762C41.2785 70.4762 40.9392 70.6224 40.6893 70.7892V74.0174H40.6916ZM38.9287 72.2674C38.9287 71.2804 39.0548 71.1159 39.2084 71.1159C39.417 71.1159 39.472 71.269 39.472 72.2674C39.472 73.3366 39.3391 73.4485 39.2015 73.4485C39.0273 73.4485 38.9287 73.3503 38.9287 72.2674ZM38.0782 72.2742C38.0782 73.8301 38.4267 74.0859 39.1786 74.0859C39.9305 74.0859 40.3202 73.5856 40.3202 72.2468C40.3202 70.908 39.9787 70.4762 39.2336 70.4762C38.4886 70.4762 38.0782 71.0177 38.0782 72.2742ZM36.3635 69.158C36.2305 69.158 36.2236 69.2973 36.2236 69.2973V74.0174H36.8793C36.9916 74.0174 37.0053 73.9191 37.0053 73.8917C37.0053 73.8849 36.9985 73.878 36.9985 73.878V71.7328H37.7229C37.849 71.7328 37.849 71.614 37.849 71.0314H36.9985V69.8091H37.8971C38.037 69.8091 38.0369 69.7748 38.0369 69.1557H36.3657L36.3635 69.158ZM34.3369 72.2902C34.3369 72.7426 34.3232 73.3114 34.3025 73.6016C34.2269 73.6701 34.0091 73.7547 33.7867 73.7547C33.4314 73.7547 33.1242 73.6998 33.1242 73.0396C33.1242 72.3039 33.4864 72.2194 33.883 72.2194C34.016 72.2194 34.204 72.2399 34.3369 72.2879V72.2902ZM32.7276 70.7983C32.7276 70.86 32.7414 70.9377 32.7826 71.0199C32.9706 70.9377 33.3466 70.8463 33.7867 70.8463C34.1146 70.8463 34.3369 70.9446 34.3369 71.3946V72.0046C34.1833 71.9429 33.9541 71.9224 33.7661 71.9224C33.2434 71.9224 32.7276 72.0754 32.7276 73.0533C32.7276 74.0311 33.2297 74.0951 33.7317 74.0882C34.22 74.0882 34.518 73.9351 34.6785 73.8392C34.6991 73.2977 34.7129 72.5278 34.7129 71.735V71.3192C34.7129 70.6955 34.4332 70.4785 33.8761 70.4785C33.3672 70.4785 32.9225 70.5767 32.7826 70.659C32.7482 70.6795 32.7276 70.7412 32.7276 70.7983ZM30.0661 70.7229V74.0197C30.442 74.0197 30.4489 74.0197 30.4489 73.9214V70.9788C30.6575 70.8669 30.9785 70.8189 31.1871 70.8189C31.6616 70.8189 31.7579 71.0337 31.7579 71.534V74.0197C32.1407 74.0197 32.1476 74.0197 32.1476 73.9214V71.4289C32.1476 70.7755 31.9459 70.4785 31.194 70.4785C30.8042 70.4785 30.3847 70.5836 30.0661 70.7207V70.7229ZM27.3357 70.4808C26.632 70.4808 26.201 70.7869 26.201 71.2713C26.201 71.5203 26.2766 71.7373 26.6618 72.0001L27.3931 72.5278C27.6727 72.7357 27.7828 72.9368 27.7828 73.2018C27.7828 73.5696 27.4893 73.7364 27.0308 73.7364C26.703 73.7364 26.4807 73.6815 26.272 73.5559C26.2101 73.6313 26.1895 73.7158 26.1895 73.7912C26.1895 73.958 26.5311 74.0905 27.0675 74.0905C27.7782 74.0905 28.2092 73.7638 28.2092 73.1538C28.2092 72.7997 28.0625 72.5644 27.7346 72.2925L26.9827 71.7579C26.6961 71.5568 26.6411 71.4312 26.6411 71.2713C26.6411 70.9788 26.9483 70.8189 27.3724 70.8189C27.6727 70.8189 27.8951 70.8874 28.1312 71.0405C28.1862 70.972 28.2229 70.8874 28.2229 70.8258C28.2229 70.7138 27.9937 70.4785 27.338 70.4785L27.3357 70.4808ZM23.8604 72.3199C23.8604 71.1524 24.1538 70.8212 24.5985 70.8212C25.0433 70.8212 25.2817 71.0702 25.2817 72.2719C25.2817 73.3617 24.9883 73.7569 24.5504 73.7569C24.1125 73.7569 23.8604 73.5216 23.8604 72.3199ZM23.45 72.2925C23.45 73.862 23.8535 74.0905 24.5366 74.0905C25.2817 74.0905 25.6852 73.5353 25.6852 72.2856C25.6852 70.8623 25.3298 70.4808 24.6123 70.4808C23.8948 70.4808 23.45 71.0085 23.45 72.2925ZM22.0768 70.4808C21.7834 70.4808 21.4418 70.5722 21.1919 70.7298C21.0727 70.5699 20.871 70.4808 20.5225 70.4808C20.1741 70.4808 19.8256 70.563 19.4909 70.7092V74.0197C19.86 74.0197 19.8738 74.0197 19.8738 73.9214V70.972C20.1099 70.86 20.3116 70.8189 20.5157 70.8189C20.9765 70.8189 20.9902 71.0199 20.9902 71.4517V74.0197H20.9971C21.3662 74.0197 21.373 74.0197 21.373 73.9214V71.0131C21.5954 70.8669 21.8109 70.8258 22.0149 70.8258C22.4047 70.8258 22.4757 71.0131 22.4757 71.4654V74.0197C22.8517 74.0197 22.8586 74.0197 22.8586 73.9214V71.4837C22.8586 70.8303 22.7669 70.4762 22.0791 70.4762L22.0768 70.4808ZM18.3997 72.2925C18.3997 72.7448 18.386 73.3137 18.3653 73.6039C18.2897 73.6724 18.0719 73.7569 17.8495 73.7569C17.4942 73.7569 17.187 73.7021 17.187 73.0418C17.187 72.3062 17.5492 72.2217 17.9458 72.2217C18.0788 72.2217 18.2668 72.2422 18.3997 72.2902V72.2925ZM16.7904 70.8006C16.7904 70.8623 16.8042 70.94 16.8454 71.0222C17.0334 70.94 17.4094 70.8486 17.8495 70.8486C18.1774 70.8486 18.3997 70.9468 18.3997 71.3969V72.0069C18.2461 71.9452 18.0169 71.9247 17.8289 71.9247C17.3062 71.9247 16.7904 72.0777 16.7904 73.0556C16.7904 74.0334 17.2925 74.0973 17.7945 74.0905C18.2828 74.0905 18.5808 73.9374 18.7413 73.8415C18.7619 73.3 18.7757 72.5301 18.7757 71.7373V71.3215C18.7757 70.6978 18.496 70.4808 17.9389 70.4808C17.43 70.4808 16.9853 70.579 16.8454 70.6613C16.811 70.6818 16.7904 70.7435 16.7904 70.8006ZM15.2017 70.892V73.0167C15.2017 73.6496 15.2361 74.0928 15.8138 74.0928C16.0935 74.0928 16.3778 74.0242 16.3778 73.8438C16.3778 73.7684 16.364 73.6975 16.3503 73.6427C16.1967 73.7112 16.0935 73.7547 15.8964 73.7547C15.5892 73.7547 15.5754 73.4348 15.5754 73.0259V70.8943H16.3342C16.4099 70.8943 16.4167 70.86 16.4167 70.5539H15.5731V69.3042C15.2591 69.3042 15.1972 69.3042 15.1972 69.4572V70.5539H14.7662C14.6837 70.5539 14.6745 70.5881 14.6745 70.8943H15.1972L15.2017 70.892ZM14.0945 73.926V70.5516C13.7873 70.5516 13.6979 70.5516 13.6979 70.7389V74.022C14.0876 74.022 14.0945 74.022 14.0945 73.9237V73.926ZM13.6841 69.3796C13.6773 69.608 13.7529 69.6926 13.8928 69.6994C14.0463 69.6994 14.122 69.5806 14.1289 69.3727C14.1289 69.158 14.0739 69.0597 13.9134 69.0597C13.7529 69.0597 13.6841 69.1785 13.6841 69.3796ZM11.9579 73.7455C11.5086 73.7387 11.2037 73.5787 11.2037 72.3496C11.2037 71.2187 11.6026 70.8212 12.0634 70.8212C12.2811 70.8212 12.3912 70.8555 12.5242 70.9605L12.531 73.6062C12.3774 73.7044 12.1757 73.7455 11.9579 73.7455ZM12.5242 69.1077V70.6361C12.3774 70.531 12.1963 70.4831 11.951 70.4831C11.3137 70.4831 10.7933 71.0519 10.7933 72.3862C10.7933 73.9214 11.3091 74.0951 11.9235 74.0951C12.3362 74.0951 12.6823 74.0037 12.9093 73.8872V68.9226C12.6067 68.9226 12.5219 68.9226 12.5219 69.11L12.5242 69.1077ZM9.38577 70.8303C9.79612 70.8303 9.90845 71.1022 9.91533 71.6574C9.91533 71.8036 9.90845 71.9566 9.88782 72.1234C9.50498 72.2125 8.85621 72.2217 8.57194 72.2125C8.62009 70.9902 9.03273 70.8303 9.38806 70.8303H9.38577ZM9.37202 73.7181C8.88372 73.7181 8.57195 73.5513 8.56507 72.5369C8.87914 72.5369 9.6517 72.5232 10.2294 72.4113C10.2775 72.1828 10.2913 71.8767 10.2913 71.5774C10.2913 70.8897 10.0185 70.4808 9.41328 70.4808C8.80807 70.4808 8.17306 70.6887 8.17306 72.473C8.17306 73.8689 8.65448 74.0905 9.31471 74.0905C9.81676 74.0905 10.2546 73.9169 10.2546 73.7501C10.2546 73.6747 10.2409 73.5696 10.2133 73.4782C9.99098 73.6313 9.68379 73.7135 9.36972 73.7135L9.37202 73.7181ZM6.51561 70.7892V74.0242C6.89157 74.0242 6.90533 74.0242 6.90533 73.926V71.0451C7.07956 70.9126 7.28129 70.8509 7.50366 70.8509C7.66413 70.8509 7.79709 70.8989 7.89338 70.956C7.92777 70.8874 7.9484 70.7823 7.9484 70.7275C7.9484 70.5813 7.78792 70.4853 7.44635 70.4853C7.13916 70.4853 6.81134 70.5836 6.51332 70.7915L6.51561 70.7892ZM5.94479 70.7618C5.94479 70.6087 5.67428 70.4831 5.36021 70.4831C4.78939 70.4831 4.10623 70.6978 4.10623 72.3656C4.10623 73.8575 4.52346 74.0951 5.14472 74.0951C5.61926 74.0951 5.94479 73.9146 5.94479 73.7615C5.94479 73.693 5.92416 73.6153 5.89665 73.533C5.77056 73.645 5.54131 73.7478 5.25475 73.7478C4.78021 73.7478 4.49595 73.5193 4.49595 72.3862C4.49595 70.9902 4.97049 70.8303 5.35333 70.8303C5.58258 70.8303 5.77744 70.9126 5.88977 70.9902C5.93103 70.908 5.94479 70.8166 5.94479 70.7618ZM1.68081 72.3313L2.00863 71.0474C2.15534 70.5059 2.28143 69.937 2.30894 69.6857C2.32957 69.9347 2.46254 70.5059 2.60238 71.0474L2.94396 72.3313H1.6831H1.68081ZM3.77153 73.9351L2.45566 69.158C2.42127 69.1443 2.3502 69.1374 2.28831 69.1374C2.21266 69.1374 2.16223 69.158 2.15535 69.1991L0.839478 74.0174C0.938053 74.0311 1.03434 74.0311 1.0756 74.0311C1.21544 74.0311 1.24982 74.0174 1.26358 73.9488L1.5914 72.6854H3.03336L3.38182 74.0242C3.48039 74.0311 3.56292 74.0311 3.61106 74.0311C3.75778 74.0311 3.79216 74.0037 3.77153 73.9329V73.9351Z"
    fill="#58ABC2" />
</svg>